<svg width="32" height="32" viewBox="0 0 32 32" fill="none"
    xmlns="http://www.w3.org/2000/svg">
    <path d="M23.1762 4H12.5402C11.2324 4 10.1777 5.05937 10.1777 6.3625V6.48906C10.1777 6.72344 10.3699 6.91562 10.6043 6.91562H20.3824C21.648 6.91562 22.6793 7.94687 22.6793 9.2125L22.7543 24.9391C22.7543 25.1734 22.9465 25.3609 23.1809 25.3609C24.484 25.3609 25.5434 24.3016 25.5434 22.9984V6.35781C25.5387 5.05937 24.4793 4 23.1762 4Z" />
    <path d="M11.9592 15.4752H11.5326C11.3545 15.4752 11.2139 15.6205 11.2139 15.794V20.5424C11.2139 20.7205 11.3592 20.8612 11.5326 20.8612H11.9592C12.1373 20.8612 12.2779 20.7158 12.2779 20.5424V15.794C12.2779 15.6158 12.1326 15.4752 11.9592 15.4752Z" />
    <path d="M14.4488 12.6062H14.0082C13.8301 12.6062 13.6895 12.7515 13.6895 12.925V14.7999V20.5421C13.6895 20.7203 13.8348 20.8609 14.0082 20.8609H14.4488C14.627 20.8609 14.7676 20.7156 14.7676 20.5421V16.9796C14.7676 16.9656 14.7676 16.9562 14.7676 16.9421C14.7676 16.9374 14.7676 16.9281 14.7676 16.9234V12.925C14.7676 12.7468 14.627 12.6062 14.4488 12.6062Z" />
    <path d="M16.9371 17.5046H16.4965C16.3184 17.5046 16.1777 17.65 16.1777 17.8234V20.5421C16.1777 20.7203 16.323 20.8609 16.4965 20.8609H16.9371C17.1152 20.8609 17.2559 20.7156 17.2559 20.5421V17.8234C17.2559 17.6453 17.1152 17.5046 16.9371 17.5046Z" />
    <path d="M19.0562 8.08276H9.29687C8.03125 8.08276 7 9.11401 7 10.3796V25.7031C7 26.9687 8.03125 27.9999 9.29687 27.9999H19.0562C20.3219 27.9999 21.3531 26.9687 21.3531 25.7031V10.3796C21.3531 9.11401 20.3219 8.08276 19.0562 8.08276ZM17.8234 24.6953H10.5062C10.1172 24.6953 9.80312 24.3812 9.80312 23.9921C9.80312 23.6031 10.1172 23.289 10.5062 23.289H17.8234C18.2125 23.289 18.5266 23.6031 18.5266 23.9921C18.5266 24.3812 18.2078 24.6953 17.8234 24.6953ZM17.7812 22.2718H15.6531C15.5922 22.2718 15.5312 22.2671 15.475 22.2531C15.4187 22.2671 15.3578 22.2718 15.2969 22.2718H13.1687C13.1078 22.2718 13.0516 22.2671 12.9953 22.2531C12.9391 22.2624 12.8828 22.2718 12.8219 22.2718H10.6844C10.1969 22.2718 9.79844 21.8734 9.79844 21.3859V14.9499C9.79844 14.4624 10.1969 14.064 10.6844 14.064H12.2781V12.0812C12.2781 11.5937 12.6766 11.1953 13.1641 11.1953H15.2922C15.7797 11.1953 16.1781 11.5937 16.1781 12.0812V16.0937H17.7812C18.2687 16.0937 18.6672 16.4921 18.6672 16.9796V21.3859C18.6672 21.8734 18.2687 22.2718 17.7812 22.2718Z" />
</svg>
