<svg width="40" height="40" viewBox="0 0 40 40" fill="none"
    xmlns="http://www.w3.org/2000/svg">
    <path d="M11.7969 23.6605V21.3168H14.1406V11.8636H11.7969V9.5199H9.45312V11.8636H7.10938V21.3168H9.45312V23.6605H11.7969Z" fill="#EB5757"/>
    <path d="M30.5469 23.6605V21.3168H32.9688L32.8906 2.48865H30.5469V0.144897H28.2031V2.48865H25.8594V21.3168H28.2031V23.6605H30.5469Z" fill="#EB5757"/>
    <path d="M21.1719 23.6605V21.3168H23.5156V7.17615H21.1719V4.8324H18.8281V7.17615H16.4844V21.3168H18.8281V23.6605H21.1719Z" fill="#EB5757"/>
    <path d="M8.84125 39.2256C10.1545 38.2502 11.9187 37.7234 13.5547 37.7234H24.0546L40 28.3954C40 28.3954 39.4009 27.3645 39.3943 27.3531C38.3832 25.6095 36.015 25.2058 34.2898 26.2482L22.9297 33.0359H15.3125V30.6922H22.3438V26.0047H12.5704C8.16414 26.0047 4.21891 27.6453 0.843906 31.0438L0 31.8641L7.99227 39.8563L8.84125 39.2256Z" fill="#EB5757"/>
</svg>
