<svg width="36" height="60" viewBox="0 0 36 60" fill="none"
    xmlns="http://www.w3.org/2000/svg">
    <path d="M30.629 0H19.3779V26.8151L32.4405 20.8745C33.9969 20.1657 35.0057 18.6056 35.0057 16.8916V4.37293C35.0057 1.96144 33.0405 0 30.629 0Z" fill="#22D291"/>
    <path d="M15.6278 0H4.37668C1.96519 0 0 1.96144 0 4.37668V16.8991C0 18.6056 1.0051 20.1657 2.554 20.8783L15.6278 26.8526V0Z" fill="#22D291"/>
    <path d="M34.5674 45.7096L33.3261 42.9755C33.1911 42.6793 33.1911 42.3342 33.3261 42.038L34.5674 39.3039C35.1262 38.0776 35.1488 36.6562 34.6349 35.4111C34.1211 34.1659 33.0973 33.1796 31.8372 32.707L29.0244 31.6532C28.7169 31.5369 28.4768 31.2969 28.3606 30.9894L27.3067 28.1803C26.8342 26.9165 25.8478 25.8964 24.6027 25.3826C23.3538 24.865 21.9362 24.8875 20.7136 25.4463L17.9796 26.6877C17.6833 26.8227 17.342 26.8227 17.042 26.6877L14.308 25.4463C13.0778 24.8838 11.6565 24.8613 10.4151 25.3788C9.16996 25.8926 8.18361 26.9165 7.71107 28.1766L6.65721 30.9894C6.54095 31.2969 6.30093 31.5369 5.9934 31.6532L3.18438 32.707C1.9205 33.1796 0.900402 34.1659 0.386602 35.4111C-0.130948 36.6562 -0.104695 38.0738 0.450359 39.3002L1.69173 42.0342C1.82674 42.3305 1.82674 42.6755 1.69173 42.9718L0.450359 45.7058C-0.108445 46.9322 -0.130946 48.3536 0.382854 49.5987C0.896654 50.8438 1.9205 51.8302 3.18062 52.3027L5.9934 53.3566C6.30093 53.4728 6.54095 53.7128 6.65721 54.0204L7.71107 56.8294C8.18361 58.0933 9.16996 59.1134 10.4151 59.6272C11.0114 59.8747 11.649 59.9985 12.2828 59.9985C12.9728 59.9985 13.6666 59.8522 14.3042 59.5634L17.0382 58.322C17.3345 58.187 17.6758 58.187 17.9758 58.322L20.7098 59.5634C21.9362 60.1222 23.3576 60.1447 24.6027 59.6309C25.8478 59.1171 26.8342 58.0933 27.3067 56.8331L28.3606 54.0204C28.4768 53.7128 28.7169 53.4728 29.0244 53.3566L31.8334 52.3027C33.0973 51.8302 34.1174 50.8438 34.6312 49.5987C35.1487 48.3536 35.1225 46.9359 34.5674 45.7096ZM17.5033 51.2563C12.6803 51.2563 8.75367 47.3297 8.75367 42.5067C8.75367 37.6838 12.6803 33.7534 17.5033 33.7534C22.3262 33.7534 26.2529 37.68 26.2529 42.503C26.2529 47.326 22.3262 51.2563 17.5033 51.2563Z" fill="#8CEB90"/>
    <circle cx="17.5" cy="42.5" r="4.5" fill="#22D291"/>
</svg>
