<svg width="41" height="40" viewBox="0 0 41 40" fill="none" xmlns="http://www.w3.org/2000/svg">
<path d="M24.8746 32.9438L16.5061 24.5752L14.0019 27.0793L22.3705 35.4479L22.0602 35.7582C20.9258 36.8391 18.9139 36.6786 17.4906 35.3302L11.6262 29.4551L9.12207 31.9592L13.5204 36.3575C15.1577 37.9949 16.6345 39.0757 17.9294 39.5894C19.2243 40.103 20.5727 40.1351 21.9745 39.6857C23.0126 39.4074 23.9864 38.8296 26.1053 36.7428L30.8889 31.9485L28.3847 29.4444L24.8746 32.9438Z" fill="#0ACF97"/>
<path d="M7.04585 24.8639L15.4144 16.4953L12.9103 13.9912L4.54171 22.3598L4.23136 22.0494C3.15052 20.9151 3.31104 18.9032 4.65942 17.4799L10.5345 11.6155L8.04109 9.11133L3.64278 13.5096C2.00546 15.147 0.924608 16.6238 0.410937 17.9186C-0.102734 19.2135 -0.134839 20.5619 0.314623 21.9638C0.592862 23.0018 1.17074 23.9757 3.25753 26.0946L8.05179 30.8888L10.5559 28.3847L7.04585 24.8639Z" fill="#FC5661"/>
<path d="M21.0859 17.1376L22.8516 18.9033C23.4509 19.5026 23.4509 20.4657 22.8516 21.065L21.0859 22.8415C20.4866 23.4408 19.5235 23.4408 18.9242 22.8415L17.1584 21.0757C16.5592 20.4764 16.5592 19.5133 17.1584 18.914L18.9242 17.1483C19.5128 16.5383 20.4866 16.5383 21.0859 17.1376Z" fill="#22D291"/>
<path d="M39.6858 18.0256C39.4075 16.9876 38.8296 16.0137 36.7429 13.8948L31.9593 9.10059L29.4552 11.6047L32.9652 15.1148L24.5967 23.4834L27.1008 25.9875L35.4694 17.619L35.7797 17.9293C36.8606 19.0637 36.7001 21.0755 35.3517 22.4988L29.4766 28.374L31.9807 30.8781L36.379 26.4798C38.0163 24.8425 39.0972 23.3657 39.6109 22.0708C40.1031 20.7759 40.1352 19.4275 39.6858 18.0256Z" fill="#EB5757"/>
<path d="M15.1256 7.04585L23.4941 15.4144L25.9983 12.9103L17.6297 4.54171L17.94 4.23136C19.0744 3.15052 21.0863 3.31104 22.5096 4.65942L28.3847 10.5345L30.8888 8.03039L26.4798 3.64278C24.8425 2.00546 23.3657 0.924608 22.0708 0.410937C20.7759 -0.102734 19.4276 -0.134839 18.0257 0.314623C16.9876 0.592862 16.0138 1.17074 13.8949 3.25753L9.11133 8.05179L11.6155 10.5559L15.1256 7.04585Z" fill="#22D291"/>
</svg>
