<svg width="16" height="16" viewBox="0 0 16 16" fill="none"
    xmlns="http://www.w3.org/2000/svg">
    <path fill-rule="evenodd" clip-rule="evenodd" d="M7.33325 6.66668C6.96506 6.66668 6.66659 6.96515 6.66659 7.33334V13.3333C6.66659 13.7015 6.96506 14 7.33325 14H13.3333C13.7014 14 13.9999 13.7015 13.9999 13.3333V7.33334C13.9999 6.96515 13.7014 6.66668 13.3333 6.66668H7.33325ZM5.33325 7.33334C5.33325 6.22877 6.22868 5.33334 7.33325 5.33334H13.3333C14.4378 5.33334 15.3333 6.22877 15.3333 7.33334V13.3333C15.3333 14.4379 14.4378 15.3333 13.3333 15.3333H7.33325C6.22868 15.3333 5.33325 14.4379 5.33325 13.3333V7.33334Z" fill="#3F6FD9"/>
    <path fill-rule="evenodd" clip-rule="evenodd" d="M2.66675 1.99999C2.48994 1.99999 2.32037 2.07023 2.19534 2.19525C2.07032 2.32028 2.00008 2.48985 2.00008 2.66666V8.66666C2.00008 8.84347 2.07032 9.01304 2.19534 9.13806C2.32037 9.26309 2.48994 9.33332 2.66675 9.33332H3.33341C3.7016 9.33332 4.00008 9.6318 4.00008 9.99999C4.00008 10.3682 3.7016 10.6667 3.33341 10.6667H2.66675C2.13631 10.6667 1.62761 10.4559 1.25253 10.0809C0.877462 9.7058 0.666748 9.19709 0.666748 8.66666V2.66666C0.666748 2.13622 0.877462 1.62752 1.25253 1.25244C1.62761 0.87737 2.13632 0.666656 2.66675 0.666656H8.66675C9.19718 0.666656 9.70589 0.87737 10.081 1.25244C10.456 1.62752 10.6667 2.13622 10.6667 2.66666V3.33332C10.6667 3.70151 10.3683 3.99999 10.0001 3.99999C9.63189 3.99999 9.33342 3.70151 9.33342 3.33332V2.66666C9.33342 2.48985 9.26318 2.32028 9.13815 2.19525C9.01313 2.07023 8.84356 1.99999 8.66675 1.99999H2.66675Z" fill="#3F6FD9"/>
</svg>
