<svg width="32" height="32" viewBox="0 0 32 32" fill="none"
    xmlns="http://www.w3.org/2000/svg">
    <path d="M13.9363 7H8.31133C7.58711 7 7 7.58711 7 8.31133V11.6863C7 12.4105 7.58711 12.9977 8.31133 12.9977H13.9363C14.6605 12.9977 15.2477 12.4105 15.2477 11.6863V8.31133C15.2512 7.58711 14.6605 7 13.9363 7Z" />
    <path d="M13.9363 14.4989H8.31133C7.58711 14.4989 7 15.0895 7 15.8137V23.6887C7 24.413 7.58711 25.0001 8.31133 25.0001H13.9363C14.6605 25.0001 15.2477 24.413 15.2477 23.6887V15.8137C15.2512 15.0895 14.6605 14.4989 13.9363 14.4989Z" />
    <path d="M23.6883 18.9989H18.0633C17.3391 18.9989 16.752 19.586 16.752 20.3102V23.6852C16.752 24.4095 17.3391 24.9966 18.0633 24.9966H23.6883C24.4125 24.9966 24.9996 24.4095 24.9996 23.6852V20.3102C24.9996 19.5895 24.4125 18.9989 23.6883 18.9989Z" />
    <path d="M23.6883 7H18.0633C17.3391 7 16.752 7.58711 16.752 8.31133V16.1863C16.752 16.9106 17.3391 17.4977 18.0633 17.4977H23.6883C24.4125 17.4977 24.9996 16.9106 24.9996 16.1863V8.31133C24.9996 7.58711 24.4125 7 23.6883 7Z" />
</svg>
