<svg width="24" height="23" viewBox="0 0 24 23" fill="none"
    xmlns="http://www.w3.org/2000/svg">
    <path d="M16 9.99951H8C7.448 9.99951 7 9.55151 7 8.99951C7 8.44751 7.448 7.99951 8 7.99951H16C16.552 7.99951 17 8.44751 17 8.99951C17 9.55151 16.552 9.99951 16 9.99951Z" fill="#767995"/>
    <path d="M12 6.00049H8C7.448 6.00049 7 5.55249 7 5.00049C7 4.44849 7.448 4.00049 8 4.00049H12C12.552 4.00049 13 4.44849 13 5.00049C13 5.55249 12.552 6.00049 12 6.00049Z" fill="#767995"/>
    <path d="M4 14.5C3.448 14.5 3 14.052 3 13.5V3C3 1.346 4.346 0 6 0H18C19.654 0 21 1.346 21 3V13.5C21 14.052 20.552 14.5 20 14.5C19.448 14.5 19 14.052 19 13.5V3C19 2.449 18.551 2 18 2H6C5.449 2 5 2.449 5 3V13.5C5 14.052 4.552 14.5 4 14.5Z" fill="#767995"/>
    <path d="M22.437 6.55459L20 5.22559V7.50359L21.479 8.31059C21.8 8.48559 22 8.82159 22 9.18859V10.4376L12.586 15.3546C12.225 15.5416 11.775 15.5416 11.417 15.3566L2 10.4376V9.18859C2 8.82159 2.2 8.48559 2.521 8.31059L4 7.50359V5.22559L1.564 6.55459C0.599 7.07959 0 8.08859 0 9.18859V20.0006C0 21.6546 1.346 23.0006 3 23.0006H21C22.654 23.0006 24 21.6546 24 20.0006V9.18859C24 8.08859 23.401 7.07959 22.437 6.55459Z" fill="#767995"/>
</svg>
