<svg width="16" height="12" viewBox="0 0 16 12" fill="none"
    xmlns="http://www.w3.org/2000/svg">
    <path d="M15.6051 6.00021C15.6051 6.44021 15.2451 6.80021 14.8051 6.80021H3.1251L6.74511 10.4402C7.06511 10.7602 7.06511 11.2602 6.74511 11.5802C6.58511 11.7402 6.3851 11.8202 6.1851 11.8202C5.9851 11.8202 5.7651 11.7402 5.6251 11.5802L0.645105 6.58021C0.325105 6.26021 0.325105 5.76021 0.645105 5.46021L5.6251 0.460212C5.9451 0.140212 6.4451 0.140212 6.7651 0.460212C7.0851 0.780212 7.0851 1.28021 6.7651 1.60021L3.1251 5.20021H14.8051C15.2451 5.20021 15.6051 5.56021 15.6051 6.00021Z" />
</svg>
