<svg width="156" height="156" viewBox="0 0 156 156" fill="none"
    xmlns="http://www.w3.org/2000/svg">
    <path d="M78 0C34.9891 0 0 34.9891 0 78C0 121.011 34.9891 156 78 156C121.011 156 156 121.011 156 78C156 34.9891 121.011 0 78 0Z" fill="#22D291"/>
    <path d="M114.352 61.5328L72.1018 103.782C70.8342 105.05 69.1703 105.688 67.5065 105.688C65.8426 105.688 64.1787 105.05 62.9112 103.782L41.7866 82.6574C39.2443 80.1164 39.2443 76.0079 41.7866 73.4668C44.3276 70.9246 48.4349 70.9246 50.9772 73.4668L67.5065 89.9961L105.162 52.3422C107.703 49.8 111.81 49.8 114.352 52.3422C116.893 54.8833 116.893 58.9906 114.352 61.5328Z" fill="#FAFAFA"/>
</svg>
