<svg width="16" height="16" viewBox="0 0 16 16" fill="none"
    xmlns="http://www.w3.org/2000/svg">
    <path fill-rule="evenodd" clip-rule="evenodd" d="M8.00008 2C4.68637 2 2.00008 4.68629 2.00008 8C2.00008 11.3137 4.68637 14 8.00008 14C11.3138 14 14.0001 11.3137 14.0001 8C14.0001 4.68629 11.3138 2 8.00008 2ZM0.666748 8C0.666748 3.94991 3.94999 0.666664 8.00008 0.666664C12.0502 0.666664 15.3334 3.94991 15.3334 8C15.3334 12.0501 12.0502 15.3333 8.00008 15.3333C3.94999 15.3333 0.666748 12.0501 0.666748 8Z" fill="#3F6FD9"/>
    <path fill-rule="evenodd" clip-rule="evenodd" d="M8.17216 5.34954C7.86181 5.29631 7.54264 5.35463 7.27117 5.51417C6.9997 5.67372 6.79346 5.92419 6.68897 6.22123C6.56679 6.56855 6.18618 6.75107 5.83885 6.62889C5.49153 6.50671 5.30901 6.12609 5.43119 5.77877C5.64017 5.1847 6.05266 4.68375 6.5956 4.36466C7.13853 4.04558 7.77688 3.92894 8.39757 4.0354C9.01826 4.14187 9.58125 4.46457 9.98682 4.94635C10.3923 5.42803 10.6143 6.03765 10.6134 6.66727C10.6132 7.38072 10.238 7.92602 9.85015 8.29761C9.46217 8.66933 9.00213 8.92726 8.67733 9.08286C8.65139 9.09528 8.63254 9.11306 8.6221 9.1284C8.61723 9.13555 8.61507 9.14084 8.61417 9.14361C8.6134 9.14603 8.61341 9.14699 8.61341 9.14715V9.33334C8.61341 9.70153 8.31494 10 7.94675 10C7.57856 10 7.28008 9.70153 7.28008 9.33334V9.14717C7.28008 8.5673 7.64578 8.09859 8.10129 7.88038C8.36559 7.75377 8.68427 7.56811 8.92773 7.33484C9.17122 7.10156 9.28008 6.88069 9.28008 6.66666L9.28008 6.66567C9.28055 6.35079 9.16957 6.04591 8.96678 5.80502C8.764 5.56413 8.48251 5.40278 8.17216 5.34954Z" fill="#3F6FD9"/>
    <path d="M8.66675 11.3333C8.66675 11.7015 8.36827 12 8.00008 12C7.63189 12 7.33341 11.7015 7.33341 11.3333C7.33341 10.9651 7.63189 10.6667 8.00008 10.6667C8.36827 10.6667 8.66675 10.9651 8.66675 11.3333Z" fill="#3F6FD9"/>
</svg>
