<svg width="16" height="16" viewBox="0 0 16 16" fill="none"
    xmlns="http://www.w3.org/2000/svg">
    <path fill-rule="evenodd" clip-rule="evenodd" d="M7.99998 0.666687C8.36817 0.666687 8.66665 0.965164 8.66665 1.33335V4.00002C8.66665 4.36821 8.36817 4.66669 7.99998 4.66669C7.63179 4.66669 7.33331 4.36821 7.33331 4.00002V1.33335C7.33331 0.965164 7.63179 0.666687 7.99998 0.666687Z" fill="#5BA5AF"/>
    <path fill-rule="evenodd" clip-rule="evenodd" d="M7.99998 11.3334C8.36817 11.3334 8.66665 11.6319 8.66665 12V14.6667C8.66665 15.0349 8.36817 15.3334 7.99998 15.3334C7.63179 15.3334 7.33331 15.0349 7.33331 14.6667V12C7.33331 11.6319 7.63179 11.3334 7.99998 11.3334Z" fill="#5BA5AF"/>
    <path fill-rule="evenodd" clip-rule="evenodd" d="M2.81526 2.81526C3.07561 2.55491 3.49772 2.55491 3.75807 2.81526L5.64473 4.70192C5.90508 4.96227 5.90508 5.38438 5.64473 5.64473C5.38438 5.90508 4.96227 5.90508 4.70192 5.64473L2.81526 3.75807C2.55491 3.49772 2.55491 3.07561 2.81526 2.81526Z" fill="#5BA5AF"/>
    <path fill-rule="evenodd" clip-rule="evenodd" d="M10.3552 10.3553C10.6156 10.0949 11.0377 10.0949 11.298 10.3553L13.1847 12.242C13.4451 12.5023 13.4451 12.9244 13.1847 13.1848C12.9244 13.4451 12.5023 13.4451 12.2419 13.1848L10.3552 11.2981C10.0949 11.0378 10.0949 10.6156 10.3552 10.3553Z" fill="#5BA5AF"/>
    <path fill-rule="evenodd" clip-rule="evenodd" d="M0.666656 8.00004C0.666656 7.63185 0.965133 7.33337 1.33332 7.33337H3.99999C4.36818 7.33337 4.66666 7.63185 4.66666 8.00004C4.66666 8.36823 4.36818 8.66671 3.99999 8.66671H1.33332C0.965133 8.66671 0.666656 8.36823 0.666656 8.00004Z" fill="#5BA5AF"/>
    <path fill-rule="evenodd" clip-rule="evenodd" d="M11.3333 8.00004C11.3333 7.63185 11.6318 7.33337 12 7.33337H14.6666C15.0348 7.33337 15.3333 7.63185 15.3333 8.00004C15.3333 8.36823 15.0348 8.66671 14.6666 8.66671H12C11.6318 8.66671 11.3333 8.36823 11.3333 8.00004Z" fill="#5BA5AF"/>
    <path fill-rule="evenodd" clip-rule="evenodd" d="M5.64473 10.3553C5.90508 10.6156 5.90508 11.0378 5.64473 11.2981L3.75807 13.1848C3.49772 13.4451 3.07561 13.4451 2.81526 13.1848C2.55491 12.9244 2.55491 12.5023 2.81526 12.242L4.70192 10.3553C4.96227 10.0949 5.38438 10.0949 5.64473 10.3553Z" fill="#5BA5AF"/>
    <path fill-rule="evenodd" clip-rule="evenodd" d="M13.1847 2.81526C13.4451 3.07561 13.4451 3.49772 13.1847 3.75807L11.298 5.64473C11.0377 5.90508 10.6156 5.90508 10.3552 5.64473C10.0949 5.38438 10.0949 4.96227 10.3552 4.70192L12.2419 2.81526C12.5023 2.55491 12.9244 2.55491 13.1847 2.81526Z" fill="#5BA5AF"/>
</svg>
