<svg width="359" height="395" viewBox="0 0 359 395" fill="none"
    xmlns="http://www.w3.org/2000/svg">
    <g filter="url(#filter0_d)">
        <path d="M167.5 43.9282C174.926 39.641 184.074 39.641 191.5 43.9282L306.497 110.322C313.923 114.609 318.497 122.532 318.497 131.106V263.894C318.497 272.468 313.923 280.391 306.497 284.678L191.5 351.072C184.074 355.359 174.926 355.359 167.5 351.072L52.5029 284.678C45.0773 280.391 40.5029 272.468 40.5029 263.894V131.106C40.5029 122.532 45.0773 114.609 52.5029 110.322L167.5 43.9282Z" fill="#FF003D" fill-opacity="0.3"/>
    </g>
    <path d="M190.75 60.063C183.789 56.0438 175.212 56.0438 168.25 60.063L66.1011 119.039C59.1396 123.058 54.8511 130.486 54.8511 138.524V256.476C54.8511 264.514 59.1396 271.942 66.1011 275.961L168.25 334.937C175.212 338.956 183.789 338.956 190.75 334.937L292.899 275.961C299.861 271.942 304.149 264.514 304.149 256.476V138.524C304.149 130.486 299.861 123.058 292.899 119.039L190.75 60.063Z" fill="#BB000B"/>
    <path d="M190.75 60.063C183.789 56.0438 175.212 56.0438 168.25 60.063L66.1011 119.039C59.1396 123.058 54.8511 130.486 54.8511 138.524V256.476C54.8511 264.514 59.1396 271.942 66.1011 275.961L168.25 334.937C175.212 338.956 183.789 338.956 190.75 334.937L292.899 275.961C299.861 271.942 304.149 264.514 304.149 256.476V138.524C304.149 130.486 299.861 123.058 292.899 119.039L190.75 60.063Z" fill="url(#paint0_linear)"/>
    <path d="M190.75 60.063C183.789 56.0438 175.212 56.0438 168.25 60.063L66.1011 119.039C59.1396 123.058 54.8511 130.486 54.8511 138.524V256.476C54.8511 264.514 59.1396 271.942 66.1011 275.961L168.25 334.937C175.212 338.956 183.789 338.956 190.75 334.937L292.899 275.961C299.861 271.942 304.149 264.514 304.149 256.476V138.524C304.149 130.486 299.861 123.058 292.899 119.039L190.75 60.063Z" stroke="white" stroke-width="5"/>
    <mask id="mask0" mask-type="alpha" maskUnits="userSpaceOnUse" x="57" y="59" width="245" height="277">
        <path d="M169.5 62.2281C175.688 58.6554 183.312 58.6554 189.5 62.2281L291.649 121.204C297.837 124.776 301.649 131.379 301.649 138.524V256.476C301.649 263.621 297.837 270.224 291.649 273.796L189.5 332.772C183.312 336.345 175.688 336.345 169.5 332.772L67.3511 273.796C61.1631 270.224 57.3511 263.621 57.3511 256.476V138.524C57.3511 131.379 61.1631 124.776 67.3511 121.204L169.5 62.2281Z" fill="#64FF8F"/>
    </mask>
    <g mask="url(#mask0)">
        <path d="M153.02 22.9495H208.142L154.101 367.727H207.061L153.02 22.9495Z" fill="url(#paint1_radial)" fill-opacity="0.15"/>
        <path d="M118.255 358.412L70.5182 330.851L289.708 59.285L243.843 32.8052L118.255 358.412Z" fill="url(#paint2_radial)" fill-opacity="0.15"/>
        <path d="M45.0681 305.401L17.5075 257.665L343.114 132.076L316.634 86.2116L45.0681 305.401Z" fill="url(#paint3_radial)" fill-opacity="0.15"/>
        <path d="M8.19202 222.899L8.19202 167.778L352.97 221.818V168.859L8.19202 222.899Z" fill="url(#paint4_radial)" fill-opacity="0.15"/>
        <path d="M17.5075 133.012L45.0681 85.2758L316.634 304.465L343.114 258.601L17.5075 133.012Z" fill="url(#paint5_radial)" fill-opacity="0.15"/>
        <path d="M70.5183 59.8256L118.255 32.265L243.843 357.871L289.708 331.392L70.5183 59.8256Z" fill="url(#paint6_radial)" fill-opacity="0.15"/>
    </g>
    <defs>
        <filter id="filter0_d" x="0.50293" y="0.712769" width="357.994" height="393.574" filterUnits="userSpaceOnUse" color-interpolation-filters="sRGB">
            <feFlood flood-opacity="0" result="BackgroundImageFix"/>
            <feColorMatrix in="SourceAlpha" type="matrix" values="0 0 0 0 0 0 0 0 0 0 0 0 0 0 0 0 0 0 127 0"/>
            <feOffset/>
            <feGaussianBlur stdDeviation="20"/>
            <feColorMatrix type="matrix" values="0 0 0 0 1 0 0 0 0 0.295833 0 0 0 0 0.295833 0 0 0 0.43 0"/>
            <feBlend mode="normal" in2="BackgroundImageFix" result="effect1_dropShadow"/>
            <feBlend mode="normal" in="SourceGraphic" in2="effect1_dropShadow" result="shape"/>
        </filter>
        <linearGradient id="paint0_linear" x1="342.702" y1="-80.808" x2="113.571" y2="307.742" gradientUnits="userSpaceOnUse">
            <stop stop-color="white"/>
            <stop offset="1" stop-color="white" stop-opacity="0"/>
        </linearGradient>
        <radialGradient id="paint1_radial" cx="0" cy="0" r="1" gradientUnits="userSpaceOnUse" gradientTransform="translate(180.581 195.338) rotate(90) scale(172.389)">
            <stop stop-color="#FF93A6" stop-opacity="0"/>
            <stop offset="1" stop-color="white"/>
        </radialGradient>
        <radialGradient id="paint2_radial" cx="0" cy="0" r="1" gradientUnits="userSpaceOnUse" gradientTransform="translate(180.581 195.338) rotate(90) scale(172.389)">
            <stop stop-color="#FF93A6" stop-opacity="0"/>
            <stop offset="1" stop-color="white"/>
        </radialGradient>
        <radialGradient id="paint3_radial" cx="0" cy="0" r="1" gradientUnits="userSpaceOnUse" gradientTransform="translate(180.581 195.338) rotate(90) scale(172.389)">
            <stop stop-color="#FF93A6" stop-opacity="0"/>
            <stop offset="1" stop-color="white"/>
        </radialGradient>
        <radialGradient id="paint4_radial" cx="0" cy="0" r="1" gradientUnits="userSpaceOnUse" gradientTransform="translate(180.581 195.338) rotate(90) scale(172.389)">
            <stop stop-color="#FF93A6" stop-opacity="0"/>
            <stop offset="1" stop-color="white"/>
        </radialGradient>
        <radialGradient id="paint5_radial" cx="0" cy="0" r="1" gradientUnits="userSpaceOnUse" gradientTransform="translate(180.581 195.338) rotate(90) scale(172.389)">
            <stop stop-color="#FF93A6" stop-opacity="0"/>
            <stop offset="1" stop-color="white"/>
        </radialGradient>
        <radialGradient id="paint6_radial" cx="0" cy="0" r="1" gradientUnits="userSpaceOnUse" gradientTransform="translate(180.581 195.338) rotate(90) scale(172.389)">
            <stop stop-color="#FF93A6" stop-opacity="0"/>
            <stop offset="1" stop-color="white"/>
        </radialGradient>
    </defs>
</svg>
