<svg width="32" height="32" viewBox="0 0 32 32" fill="none"
    xmlns="http://www.w3.org/2000/svg">
    <path d="M24.0016 9.00154C25.107 9.00154 26.0031 8.10541 26.0031 6.99998C26.0031 5.89454 25.107 4.99841 24.0016 4.99841C22.8961 4.99841 22 5.89454 22 6.99998C22 8.10541 22.8961 9.00154 24.0016 9.00154Z" />
    <path d="M7.99863 9.00154C9.10407 9.00154 10.0002 8.10541 10.0002 6.99998C10.0002 5.89454 9.10407 4.99841 7.99863 4.99841C6.8932 4.99841 5.99707 5.89454 5.99707 6.99998C5.99707 8.10541 6.8932 9.00154 7.99863 9.00154Z" />
    <path d="M16 10C17.6569 10 19 8.65686 19 7C19 5.34315 17.6569 4 16 4C14.3431 4 13 5.34315 13 7C13 8.65686 14.3431 10 16 10Z" />
    <path d="M4.75 13.9985H6.49844V23.5001C6.49844 25.1547 7.84375 26.5001 9.49844 26.5001H13.4969V27.2501C13.4969 27.6626 13.8344 28.0001 14.2469 28.0001H17.7484C18.1609 28.0001 18.4984 27.6626 18.4984 27.2501V26.5001H22.4969C24.1516 26.5001 25.4969 25.1547 25.4969 23.5001V13.9985H27.25C27.6578 13.9985 28 13.6563 28 13.2485V12.7469C28 11.2282 26.7719 9.99536 25.2484 9.99536H22.75C22.0984 9.99536 21.5078 10.2157 21.0391 10.586C22.3 11.2844 23.2094 12.5266 23.4391 13.9938H23.5V23.5001C23.5 24.0532 23.05 24.4985 22.5016 24.4985H18.5031V23.7485C18.5031 23.336 18.1656 22.9985 17.7531 22.9985H17.0031V16.9985H20.7531C21.1656 16.9985 21.5031 16.661 21.5031 16.2485V14.7485C21.5031 13.2297 20.2703 11.9969 18.7516 11.9969H13.2484C11.7297 11.9969 10.4969 13.2297 10.4969 14.7485V16.2485C10.4969 16.661 10.8344 16.9985 11.2469 16.9985H14.9969V22.9985H14.2469C13.8344 22.9985 13.4969 23.336 13.4969 23.7485V24.4985H9.49844C8.94531 24.4985 8.5 24.0485 8.5 23.5001V13.9985H8.56094C8.79063 12.5266 9.7 11.2891 10.9609 10.5907C10.4922 10.2204 9.90156 10 9.25 10H6.75156C5.22813 10 4 11.2282 4 12.7516V13.2532C4 13.661 4.34219 13.9985 4.75 13.9985Z" />
</svg>
