<svg width="40" height="36" viewBox="0 0 40 36" fill="none"
    xmlns="http://www.w3.org/2000/svg">
    <path d="M20 14.1432C23.7538 14.1432 26.7969 11.1001 26.7969 7.34631C26.7969 3.5925 23.7538 0.549438 20 0.549438C16.2462 0.549438 13.2031 3.5925 13.2031 7.34631C13.2031 11.1001 16.2462 14.1432 20 14.1432Z" fill="#22D291"/>
    <path d="M33.75 14.1431C36.1231 14.1431 38.0469 12.2193 38.0469 9.8462C38.0469 7.4731 36.1231 5.54932 33.75 5.54932C31.3769 5.54932 29.4531 7.4731 29.4531 9.8462C29.4531 12.2193 31.3769 14.1431 33.75 14.1431Z" fill="#22D291"/>
    <path d="M6.25 14.1431C8.6231 14.1431 10.5469 12.2193 10.5469 9.8462C10.5469 7.4731 8.6231 5.54932 6.25 5.54932C3.8769 5.54932 1.95312 7.4731 1.95312 9.8462C1.95312 12.2193 3.8769 14.1431 6.25 14.1431Z" fill="#22D291"/>
    <path d="M10.4836 18.0014C8.79219 16.6156 7.26039 16.7991 5.30469 16.7991C2.37969 16.7991 0 19.1647 0 22.0717V30.6037C0 31.8662 1.03047 32.8928 2.29766 32.8928C7.76844 32.8928 7.10938 32.9918 7.10938 32.6569C7.10938 26.6111 6.39328 22.1774 10.4836 18.0014Z" fill="#22D291"/>
    <path d="M21.8604 16.8308C18.4444 16.5459 15.4753 16.8341 12.9143 18.948C8.62859 22.3808 9.45335 27.0029 9.45335 32.6574C9.45335 34.1534 10.6705 35.3933 12.1893 35.3933C28.6801 35.3933 29.3364 35.9253 30.3143 33.7597C30.635 33.0274 30.5471 33.2601 30.5471 26.2543C30.5471 20.6897 25.7289 16.8308 21.8604 16.8308Z" fill="#22D291"/>
    <path d="M34.6955 16.7995C32.7291 16.7995 31.2057 16.6179 29.5166 18.0018C33.5764 22.1468 32.8908 26.278 32.8908 32.6573C32.8908 32.9943 32.3437 32.8932 37.6205 32.8932C38.933 32.8932 40.0002 31.8299 40.0002 30.5229V22.0721C40.0002 19.1651 37.6205 16.7995 34.6955 16.7995Z" fill="#22D291"/>
</svg>
