
<svg width="20" height="20" viewBox="0 0 20 20" fill="none" xmlns="http://www.w3.org/2000/svg">
<path d="M0 17C0 18.6569 1.34315 20 3 20H17C18.6569 20 20 18.6569 20 17V3C20 1.34315 18.6569 0 17 0H3C1.34315 0 0 1.34315 0 3V17Z" fill="#21B786"/>
<path fill-rule="evenodd" clip-rule="evenodd" d="M9.64645 5.64645C9.84171 5.45118 10.1583 5.45118 10.3536 5.64645L14.3536 9.64645C14.5488 9.84171 14.5488 10.1583 14.3536 10.3536C14.1583 10.5488 13.8417 10.5488 13.6464 10.3536L10.5 7.20711V14C10.5 14.2761 10.2761 14.5 10 14.5C9.72386 14.5 9.5 14.2761 9.5 14V7.20711L6.35355 10.3536C6.15829 10.5488 5.84171 10.5488 5.64645 10.3536C5.45118 10.1583 5.45118 9.84171 5.64645 9.64645L9.64645 5.64645Z" fill="white"/>
</svg>
