
<svg width="20" height="20" viewBox="0 0 20 20" fill="none" xmlns="http://www.w3.org/2000/svg">
<path d="M0 3C0 1.34315 1.34315 0 3 0H17C18.6569 0 20 1.34315 20 3V17C20 18.6569 18.6569 20 17 20H3C1.34315 20 0 18.6569 0 17V3Z" fill="#BB3232"/>
<path fill-rule="evenodd" clip-rule="evenodd" d="M9.64645 14.3536C9.84171 14.5488 10.1583 14.5488 10.3536 14.3536L14.3536 10.3536C14.5488 10.1583 14.5488 9.84171 14.3536 9.64645C14.1583 9.45118 13.8417 9.45118 13.6464 9.64645L10.5 12.7929V6C10.5 5.72386 10.2761 5.5 10 5.5C9.72386 5.5 9.5 5.72386 9.5 6V12.7929L6.35355 9.64645C6.15829 9.45118 5.84171 9.45118 5.64645 9.64645C5.45118 9.84171 5.45118 10.1583 5.64645 10.3536L9.64645 14.3536Z" fill="white"/>
</svg>
