
<svg width="50" height="50" viewBox="0 0 50 50" fill="none"
    xmlns="http://www.w3.org/2000/svg">
    <path fill-rule="evenodd" clip-rule="evenodd" d="M26.8749 3.125C31.8749 3.4375 36.5624 5.9375 39.9999 9.375C44.0624 13.75 46.2499 19.0625 46.2499 25.3125C46.2499 30.3125 44.3749 35 41.2499 39.0625C38.1249 42.8125 33.7499 45.625 28.7499 46.5625C23.7499 47.5 18.7499 46.875 14.3749 44.375C9.99995 41.875 6.56245 38.125 4.68745 33.4375C2.81245 28.75 2.49995 23.4375 4.06245 18.75C5.62495 13.75 8.43745 9.6875 12.8124 6.875C16.8749 4.0625 21.8749 2.8125 26.8749 3.125ZM28.4374 43.4375C32.4999 42.5 36.2499 40.3125 39.0624 36.875C41.5624 33.4375 43.1249 29.375 42.8124 25C42.8124 20 40.9374 15 37.4999 11.5625C34.3749 8.4375 30.6249 6.5625 26.2499 6.25C22.1874 5.9375 17.8124 6.875 14.3749 9.375C10.9374 11.875 8.43745 15.3125 7.18745 19.6875C5.93745 23.75 5.93745 28.125 7.81245 32.1875C9.68745 36.25 12.4999 39.375 16.2499 41.5625C19.9999 43.75 24.3749 44.375 28.4374 43.4375ZM24.6874 23.4375L32.1874 15.625L34.3749 17.8125L26.8749 25.625L34.3749 33.4375L32.1874 35.625L24.6874 27.8125L17.1874 35.625L14.9999 33.4375L22.4999 25.625L14.9999 17.8125L17.1874 15.625L24.6874 23.4375Z" fill="#BB3232"/>
</svg>
