<svg width="156" height="156" viewBox="0 0 156 156" fill="none"
    xmlns="http://www.w3.org/2000/svg">
    <path fill-rule="evenodd" clip-rule="evenodd" d="M0 74.9709L33.0596 101.574L156 65.6729L0 74.9709Z" fill="#57CAFF"/>
    <path fill-rule="evenodd" clip-rule="evenodd" d="M29.7021 139.54L33.0598 101.574L156 65.6729L50.881 113.713L29.7021 139.54Z" fill="#0092D6"/>
    <path fill-rule="evenodd" clip-rule="evenodd" d="M119.583 28.2232L52.4306 51.7265C46.7485 53.7927 41.8412 60.7662 41.3246 67.4814L39.5167 108.031C39.2584 114.746 43.6491 118.362 49.5895 116.296L116.742 92.7927C122.424 90.7265 127.59 83.753 127.848 77.0377L129.656 36.4881C129.914 30.0311 125.523 26.1569 119.583 28.2232Z" fill="#00AEFF"/>
    <path fill-rule="evenodd" clip-rule="evenodd" d="M120.099 27.9644L52.1717 51.9843C49.0723 53.0174 45.973 55.8584 44.165 59.216L84.7147 74.7127L127.589 29.7724C125.781 27.7061 123.198 26.9313 120.099 27.9644Z" fill="#00BFFF"/>
    <path fill-rule="evenodd" clip-rule="evenodd" d="M128.365 16.6002C136.113 13.7591 142.312 19.183 141.795 28.481C141.279 37.779 134.822 47.5936 126.815 50.4346C118.808 53.2757 112.868 47.8518 113.126 38.5538C113.901 28.9975 120.616 19.183 128.365 16.6002Z" fill="#FF0000"/>
    <path d="M129.139 41.6532L126.298 42.6863L126.815 29.7724C125.781 31.3221 124.49 32.6135 122.94 33.6466V30.5473C125.265 28.9976 126.556 26.9314 127.331 24.6069L129.656 23.832L129.139 41.6532Z" fill="white"/>
    <path fill-rule="evenodd" clip-rule="evenodd" d="M29.7021 139.541L62.2452 121.978L50.881 113.713L29.7021 139.541Z" fill="#006FA3"/>
    <path fill-rule="evenodd" clip-rule="evenodd" d="M50.8809 113.713L62.2451 121.977L86.5232 140.057L156 65.6729L50.8809 113.713Z" fill="#57CAFF"/>
</svg>
