<svg width="32" height="32" viewBox="0 0 32 32" fill="none"
    xmlns="http://www.w3.org/2000/svg">
    <g clip-path="url(#clip0)">
        <path d="M27.2359 26.4953H5.50469V4.75469C5.50469 4.3375 5.16719 4 4.75469 4C4.34219 4 4 4.3375 4 4.75469V27.25C4 27.6672 4.3375 28.0047 4.75469 28.0047H27.2359C27.6531 28.0047 27.9906 27.6672 27.9906 27.25C27.9859 26.8328 27.6484 26.4953 27.2359 26.4953Z" />
        <path d="M8.0877 21.5218H9.1377V24.4843C9.1377 24.9015 9.4752 25.239 9.89239 25.239C10.3096 25.239 10.6471 24.9015 10.6471 24.4843V21.5218H11.6877C12.1049 21.5218 12.4424 21.1843 12.4424 20.7671V14.7343C12.4424 14.3171 12.1049 13.9796 11.6877 13.9796H10.6377V10.9703C10.6377 10.5531 10.3002 10.2156 9.88301 10.2156C9.46582 10.2156 9.12832 10.5531 9.12832 10.9703V13.9796H8.0877C7.67051 13.9796 7.33301 14.3171 7.33301 14.7343V20.7718C7.33301 21.1843 7.67051 21.5218 8.0877 21.5218Z" />
        <path d="M14.9363 15.3062H15.9863V18.2687C15.9863 18.6859 16.3238 19.0234 16.741 19.0234C17.1582 19.0234 17.4957 18.6859 17.4957 18.2687V15.3062H18.5457C18.9629 15.3062 19.3004 14.9688 19.3004 14.5516V8.51406C19.3004 8.09688 18.9629 7.75937 18.5457 7.75937H17.4957V4.75469C17.4957 4.3375 17.1582 4 16.741 4C16.3238 4 15.9863 4.3375 15.9863 4.75469V7.76406H14.9363C14.5191 7.76406 14.1816 8.10156 14.1816 8.51875V14.5562C14.1863 14.9688 14.5191 15.3062 14.9363 15.3062Z" />
        <path d="M21.7889 19.8018H22.8389V22.7643C22.8389 23.1815 23.1764 23.519 23.5936 23.519C24.0107 23.519 24.3482 23.1815 24.3482 22.7643V19.8018H25.3982C25.8154 19.8018 26.1529 19.4643 26.1529 19.0471V13.0096C26.1529 12.5924 25.8154 12.2549 25.3982 12.2549H24.3482V9.24553C24.3482 8.82834 24.0107 8.49084 23.5936 8.49084C23.1764 8.49084 22.8389 8.82834 22.8389 9.24553V12.2549H21.7889C21.3717 12.2549 21.0342 12.5924 21.0342 13.0096V19.0471C21.0342 19.4643 21.3717 19.8018 21.7889 19.8018Z" />
    </g>
    <defs>
        <clipPath id="clip0">
            <rect width="23.9859" height="24" fill="white" transform="translate(4 4)"/>
        </clipPath>
    </defs>
</svg>
