<svg width="40" height="40" viewBox="0 0 40 40" fill="none"
    xmlns="http://www.w3.org/2000/svg">
    <path d="M7.10938 23.5156V21.1719H9.45312V11.7969H7.10938V9.45312H4.76562V11.7969H2.42188V21.1719H4.76562V23.5156H7.10938Z" fill="#29BFFF"/>
    <path d="M16.4844 18.8281V16.4844H18.8281V7.10938H16.4844V4.76562H14.1406V7.10938H11.7969V16.4844H14.1406V18.8281H16.4844Z" fill="#29BFFF"/>
    <path d="M25.8594 16.4844V14.1406H28.2031V4.76562H25.8594V2.42188H23.5156V4.76562H21.1719V14.1406H23.5156V16.4844H25.8594Z" fill="#29BFFF"/>
    <path d="M35.2344 0H32.8906V2.34375H30.5469V11.7969H32.8906V14.1406H35.2344V11.7969H37.5781V2.34375H35.2344V0Z" fill="#29BFFF"/>
    <path d="M37.8356 22.8814L39.0979 17.4832L34.0213 15.2527L33.0783 17.3973L34.9777 18.2321L29.098 21.1716H19.723L10.348 25.8591H1.17188V28.2028H10.902L20.277 23.5153H29.652L36.0253 20.3292L35.5537 22.3481L37.8356 22.8814Z" fill="#29BFFF"/>
    <path d="M37.6562 25.8594H30.5469V37.6562H28.2031V25.8594H21.1719V37.6562H18.8281V27.4787L11.7969 30.9944V37.6562H9.45312V30.5469H2.34375V37.6562H0V40H40V37.6562H37.6562V25.8594Z" fill="#29BFFF"/>
</svg>
