<svg width="24" height="24" viewBox="0 0 24 24" fill="none"
    xmlns="http://www.w3.org/2000/svg">
    <path d="M17.1155 11.0133C16.8484 10.943 16.5765 11.1071 16.5109 11.3789C15.8033 14.2283 14.0739 15.9999 11.9978 15.9999C9.9216 15.9999 8.19225 14.2283 7.48457 11.3789C7.41896 11.1118 7.14245 10.9477 6.88001 11.0133C6.61287 11.079 6.44884 11.3508 6.51445 11.6179C7.3346 14.936 9.43888 16.9981 11.9978 16.9981C14.5566 16.9981 16.6609 14.936 17.4811 11.6179C17.5467 11.3508 17.3826 11.079 17.1155 11.0133Z" />
    <path d="M5.91419 8.22051L5.49709 7.5972V6.98794C5.53926 6.98794 5.57676 6.99263 5.61894 6.98326C5.88607 6.91764 6.0501 6.64582 5.98449 6.37869L4.98625 2.38103C4.93001 2.16545 4.74255 2.01079 4.52228 2.00142C4.30669 1.99205 4.10048 2.13264 4.03018 2.34354L3.03194 5.34295C2.98508 5.48824 3.00382 5.64758 3.08818 5.7788L5.08935 8.77822C5.18308 8.9235 5.34243 9.00317 5.50646 9.00317C5.60019 9.00317 5.69861 8.97505 5.78297 8.91882C6.00324 8.75947 6.06885 8.45016 5.91419 8.22051Z" />
    <path d="M20.9682 5.34295L19.97 2.34354C19.8997 2.13264 19.6982 1.99205 19.4779 2.00142C19.2576 2.01079 19.0655 2.16545 19.0139 2.38103L18.0157 6.37869C17.9501 6.64582 18.1094 6.91764 18.3813 6.98326C18.4234 6.99263 18.4609 6.98794 18.5031 6.98794V7.5972L18.086 8.22051C17.9313 8.45016 17.997 8.75947 18.2266 8.91413C18.311 8.97037 18.4094 8.99849 18.5031 8.99849C18.6671 8.99849 18.8218 8.91882 18.9202 8.77353L20.9214 5.77412C20.9964 5.64758 21.0198 5.48824 20.9682 5.34295Z" />
    <path d="M8.99824 8C8 8 8 8.37493 8 8.50146C8 8.628 8 9.00293 8.99824 9.00293C9.96836 9.00293 10.4979 8.628 10.4979 8.50146C10.4979 8.37493 9.96836 8 8.99824 8Z" />
    <path d="M11.9978 3.92285L11.5947 5.00077H12.4008L11.9978 3.92285Z" />
    <path d="M18.9951 6.99707C18.9951 3.14001 15.8551 0 11.998 0C8.14099 0 5.00098 3.14001 5.00098 6.99707C5.00098 7.42355 5.04784 7.86409 5.15095 8.36555C5.05253 8.71236 5.00098 9.10135 5.00098 9.49502C5.00098 10.9197 5.64773 11.993 6.57567 12.0023C6.72564 12.0164 6.8803 12.0492 7.09119 11.993C8.54403 11.9602 11.3372 11.2009 12.0027 11.0135C12.6635 11.2009 15.4614 11.9602 16.9143 11.993C17.0033 12.0164 17.0877 12.0211 17.1533 12.0211C17.2423 12.0211 17.3454 12.0117 17.5048 11.993C18.3577 11.993 19.0045 10.9197 19.0045 9.49502C19.0045 9.10135 18.9529 8.71236 18.8545 8.36555C18.9482 7.86409 18.9951 7.42823 18.9951 6.99707ZM8.99863 9.99648C7.14275 9.99648 6.99746 8.84827 6.99746 8.49678C6.99746 8.14528 7.14275 6.99707 8.99863 6.99707C10.4234 6.99707 11.4966 7.64382 11.4966 8.49678C11.4966 9.34973 10.4234 9.99648 8.99863 9.99648ZM11.2201 5.99883L10.967 6.67369C10.8686 6.93146 10.5827 7.06268 10.3249 6.96426C10.0672 6.86584 9.93595 6.57996 10.0344 6.3222L11.5341 2.32455C11.6794 1.93556 12.3261 1.93556 12.4714 2.32455L13.9711 6.3222C14.0695 6.57996 13.9383 6.87053 13.6805 6.96426C13.6196 6.9877 13.5634 6.99707 13.5024 6.99707C13.3009 6.99707 13.1088 6.87522 13.0338 6.67369L12.7807 5.99883H11.2201ZM14.9975 9.99648C13.5727 9.99648 12.4995 9.34973 12.4995 8.49678C12.4995 7.64382 13.5727 6.99707 14.9975 6.99707C16.8533 6.99707 16.9986 8.14528 16.9986 8.49678C16.9986 8.84827 16.8533 9.99648 14.9975 9.99648Z" />
    <path d="M14.9968 8C14.0267 8 13.4971 8.37493 13.4971 8.50146C13.4971 8.628 14.0267 9.00293 14.9968 9.00293C15.995 9.00293 15.995 8.628 15.995 8.50146C15.995 8.37493 15.995 8 14.9968 8Z" />
    <path d="M12.996 22.9968C12.8086 22.9968 12.6352 22.889 12.5508 22.7203L11.9978 21.6143L11.4448 22.7203C11.3604 22.889 11.187 22.9968 10.9996 22.9968H9.70605L10.3528 23.6435C10.4465 23.7373 10.4887 23.8638 10.4887 23.9997H13.4975C13.4975 23.8732 13.5444 23.742 13.6428 23.6435L14.2895 22.9968H12.996Z" />
    <path d="M21.6426 17.3216L17.0592 15.7282C16.8717 15.6626 16.6608 15.7141 16.5249 15.8641C15.2642 17.2373 13.6567 17.9965 11.9977 17.9965C10.3386 17.9965 8.7311 17.2373 7.47041 15.8641C7.3345 15.7188 7.12361 15.6673 6.93614 15.7282L2.35266 17.3216C0.942003 17.8137 0 19.14 0 20.6303V23.4985C0 23.775 0.224956 24 0.501464 24H9.09666L9.21382 23.9203L8.14528 22.8518C8 22.7065 7.95782 22.4956 8.03749 22.3081C8.11248 22.1207 8.29525 21.9988 8.50146 21.9988H10.6901L11.5524 20.2742C11.7211 19.9367 12.2788 19.9367 12.4476 20.2742L13.3099 21.9988H15.4985C15.7001 21.9988 15.8828 22.1207 15.9625 22.3081C16.0422 22.4956 15.9953 22.7112 15.8547 22.8518L14.7018 23.9953H23.4938C23.7703 23.9953 23.9953 23.7704 23.9953 23.4938V20.6257C23.9953 19.14 23.0533 17.8137 21.6426 17.3216Z" />
    <path d="M12.9958 12.9961H10.9946C10.7181 12.9961 10.4932 13.2211 10.4932 13.4976C10.4932 13.7741 10.7181 13.999 10.9946 13.999H12.9958C13.2723 13.999 13.4973 13.7741 13.4973 13.4976C13.4973 13.2211 13.2723 12.9961 12.9958 12.9961Z" />
</svg>
