<svg width="32" height="32" viewBox="0 0 32 32" fill="none"
    xmlns="http://www.w3.org/2000/svg">
    <path d="M15.208 16.172C15.5963 16.172 15.9111 15.8572 15.9111 15.4689C15.9111 15.0805 15.5963 14.7657 15.208 14.7657C14.8197 14.7657 14.5049 15.0805 14.5049 15.4689C14.5049 15.8572 14.8197 16.172 15.208 16.172Z" />
    <path d="M9.10938 14.2968C9.4977 14.2968 9.8125 13.982 9.8125 13.5936C9.8125 13.2053 9.4977 12.8905 9.10938 12.8905C8.72105 12.8905 8.40625 13.2053 8.40625 13.5936C8.40625 13.982 8.72105 14.2968 9.10938 14.2968Z" />
    <path d="M15.208 22.781C15.5963 22.781 15.9111 22.4662 15.9111 22.0779C15.9111 21.6896 15.5963 21.3748 15.208 21.3748C14.8197 21.3748 14.5049 21.6896 14.5049 22.0779C14.5049 22.4662 14.8197 22.781 15.208 22.781Z" />
    <path d="M21.1611 16.5047V19.2188C21.1611 19.6359 21.4986 19.9688 21.9111 19.9688H28.0002V15.75H21.9111C21.4986 15.75 21.1611 16.0875 21.1611 16.5047ZM23.2705 17.1562C23.6596 17.1562 23.9736 17.4703 23.9736 17.8594C23.9736 18.2484 23.6596 18.5625 23.2705 18.5625C22.8814 18.5625 22.5674 18.2484 22.5674 17.8594C22.5674 17.4703 22.8814 17.1562 23.2705 17.1562Z" />
    <path d="M19.3891 11.6907C19.5156 11.5875 19.675 11.5313 19.8344 11.5313H28V10.425C28 10.036 27.6859 9.72192 27.2969 9.72192H4.70312C4.31406 9.72192 4 10.036 4 10.425V24.0188C4 24.3469 4.04688 24.6704 4.13125 24.975L8.41094 20.6954V15.5813C7.59062 15.2907 7.00469 14.5079 7.00469 13.5938C7.00469 12.4313 7.95156 11.4844 9.11406 11.4844C10.2766 11.4844 11.2234 12.4313 11.2234 13.5938C11.2234 14.5125 10.6375 15.2907 9.81719 15.5813V20.986C9.81719 21.1735 9.74219 21.3516 9.61094 21.4829L4.81094 26.2829C5.4625 27.0751 6.45156 27.586 7.5625 27.586H27.2969C27.6859 27.586 28 27.2719 28 26.8829V24.1875H21.7141C21.6625 24.1875 21.6109 24.1829 21.5594 24.1688L17.0266 23.1422C16.6609 23.7657 15.9813 24.1875 15.2078 24.1875C14.0453 24.1875 13.0984 23.2407 13.0984 22.0782C13.0984 20.9157 14.0453 19.9688 15.2078 19.9688C16.2625 19.9688 17.1391 20.7469 17.2938 21.7641L21.7938 22.7813H28V21.375H21.9109C20.7203 21.375 19.7547 20.4094 19.7547 19.2188V16.5047C19.7547 15.3141 20.725 14.3438 21.9109 14.3438H28V12.9375H20.0875L17.2984 15.2344C17.3078 15.3094 17.3125 15.3891 17.3125 15.4688C17.3125 16.6313 16.3656 17.5782 15.2031 17.5782C14.0406 17.5782 13.0938 16.6313 13.0938 15.4688C13.0938 14.3063 14.0406 13.3594 15.2031 13.3594C15.7656 13.3594 16.2766 13.5844 16.6562 13.9407L19.3891 11.6907Z" />
    <path d="M25.2113 8.31563V6.70313C25.2113 6.31406 24.8973 6 24.5082 6H7.53945C5.99258 6 4.67539 6.99375 4.19727 8.38125C4.36133 8.33906 4.53008 8.32031 4.7082 8.32031H25.2113V8.31563Z" />
</svg>
