<svg width="512" height="390" viewBox="0 0 512 390" fill="none"
    xmlns="http://www.w3.org/2000/svg">
    <g>
        <path d="M258.582 40.7212C257.363 44.6226 254.681 48.0363 251.023 49.7432C253.218 51.4501 255.412 53.157 257.85 54.8639C261.264 51.4501 264.434 48.2802 267.848 44.8664C265.41 43.1595 262.971 41.2088 260.533 39.502" fill="#FE3638"/>
        <path d="M178.847 31.6997C180.797 35.1135 182.016 39.2588 181.773 43.404C184.943 41.4533 188.6 39.9903 192.014 38.7711C189.332 33.8943 187.381 28.7737 186.162 23.4092C183.236 25.3599 180.31 27.0668 177.14 28.5298C177.383 30.2367 177.871 31.9436 178.115 33.6505" fill="#11A6EC"/>
        <path d="M118.374 91.4403C118.374 94.1225 116.18 96.3171 113.497 96.3171C110.815 96.3171 108.621 94.1225 108.621 91.4403C108.621 88.758 110.815 86.5635 113.497 86.5635C115.936 86.5635 118.374 88.758 118.374 91.4403Z" fill="#FFD63F"/>
        <path d="M387.573 96.8046C387.573 96.5607 387.573 96.073 387.573 95.8292C387.573 93.147 385.379 90.7086 382.697 90.9524C380.014 90.9524 377.82 93.147 377.82 95.8292C377.82 96.073 377.82 96.5607 377.82 96.8046C377.82 99.4868 380.014 101.925 382.697 101.681C385.135 101.681 387.573 99.7306 387.573 96.8046Z" fill="#FFD63F"/>
        <path d="M138.369 371.856C138.125 371.612 137.638 371.125 137.394 370.881C135.687 369.174 132.273 368.93 130.322 370.881C128.615 372.832 128.372 376.002 130.322 377.952C130.566 378.196 131.054 378.684 131.298 378.928C133.005 380.635 136.418 380.878 138.369 378.928C140.32 376.977 140.32 373.807 138.369 371.856Z" fill="#FFD63F"/>
        <path d="M392.45 385.023C392.45 384.779 392.45 384.292 392.45 384.048C392.45 381.366 390.256 378.927 387.574 379.171C384.891 379.171 382.697 381.366 382.697 384.048C382.697 384.292 382.697 384.779 382.697 385.023C382.697 387.706 384.891 390.144 387.574 389.9C390.256 389.656 392.45 387.706 392.45 385.023Z" fill="#FFD63F"/>
        <path d="M80.8228 222.138C87.1626 222.138 87.1626 212.385 80.8228 212.385C74.4829 212.385 74.4829 222.138 80.8228 222.138Z" fill="#FFD63F"/>
        <path d="M506.811 204.094C513.151 204.094 513.151 194.34 506.811 194.34C500.471 194.096 500.471 204.094 506.811 204.094Z" fill="#FFD63F"/>
        <path d="M41.3209 138.745C40.8332 138.501 40.5893 130.698 40.5893 129.723C40.3455 128.016 40.1017 126.553 39.8578 124.846C39.614 123.627 39.1263 122.407 39.8578 121.188C36.9317 121.92 34.0057 121.432 31.0796 120.944C31.0796 127.284 31.3234 133.38 31.3234 139.72C34.0057 138.013 37.9071 137.525 41.3209 138.745Z" fill="#FE3638"/>
        <path d="M49.855 163.861C50.3427 165.568 50.5865 167.519 50.3427 169.469C54.9756 169.957 59.3647 167.763 63.51 165.812C64.9731 165.08 66.6799 164.105 66.6799 162.398C66.6799 160.691 61.8031 156.546 60.3401 156.546C59.1209 156.546 56.9263 159.716 55.7071 160.691C54.0003 162.154 52.0495 163.13 49.855 163.861Z" fill="#1BB3F9"/>
        <path d="M426.588 153.619C421.467 157.765 416.102 161.178 410.494 164.104C411.226 165.08 419.029 173.614 419.029 173.614C426.588 167.274 434.878 161.91 443.9 157.765C439.755 155.57 436.097 152.644 433.171 148.986" fill="#FE3638"/>
        <path d="M467.309 169.713C471.211 168.981 475.112 168.737 479.257 168.494C479.501 165.811 479.745 163.129 479.989 160.203C480.476 155.082 480.72 150.206 481.208 145.085C481.208 145.085 472.43 146.06 471.211 147.036C469.26 148.499 469.26 149.962 469.016 152.156C467.553 158.74 469.991 163.861 467.309 169.713Z" fill="#11A6EC"/>
        <path d="M473.649 250.911C472.186 247.254 471.454 243.596 470.967 239.695C470.723 237.744 470.723 235.793 470.723 233.842C470.723 233.355 470.967 228.722 470.967 228.722C467.797 227.746 464.383 227.259 460.969 227.503C460.725 229.697 460.725 232.136 460.481 234.33C460.481 236.037 460.481 237.744 460.481 239.451C460.481 241.645 460.481 243.596 460.969 245.791C460.969 246.278 462.188 251.887 462.432 251.643C466.334 250.911 469.991 250.667 473.649 250.911Z" fill="#FE3638"/>
        <path d="M493.4 291.632C495.351 292.608 496.57 294.559 497.057 296.509C501.69 293.827 506.323 291.145 510.956 288.219C508.03 283.586 507.299 281.147 502.91 284.073C501.203 284.805 496.082 292.852 493.4 291.632Z" fill="#11A6EC"/>
        <path d="M25.4712 234.574C27.1781 235.793 28.1534 237.744 28.3973 239.694C33.7617 237.256 38.6385 233.842 42.54 229.697C41.3208 230.916 37.907 226.039 37.4193 225.796C35.4686 224.576 36.9317 223.845 34.9809 225.552C31.3233 228.478 31.0795 233.355 25.4712 234.574Z" fill="#FE3638"/>
        <path d="M19.6192 282.366C19.3754 286.512 18.8877 290.413 18.6439 294.558C13.0355 293.583 7.18338 292.608 1.57506 291.632C1.08738 291.632 0.843541 291.388 0.599701 291.145C0.355861 290.901 0.355861 290.413 0.355861 290.169C0.112021 285.049 0.355861 279.44 2.30658 274.563C6.20802 279.196 12.5479 284.317 19.6192 282.366Z" fill="#1BB3F9"/>
        <path d="M340.269 340.888C339.293 342.107 338.318 343.082 337.099 344.301C335.392 346.252 333.441 348.447 330.759 348.934C331.734 349.666 332.466 350.641 332.709 351.617C337.099 350.397 341.244 348.691 344.901 346.252C343.438 344.545 342.219 343.082 340.756 341.375" fill="#FE3638"/>
        <path d="M327.345 376.001C329.783 377.464 332.709 378.195 335.392 378.439C334.416 379.902 333.685 381.365 333.441 383.072C329.783 381.609 326.126 380.878 322.224 380.39C323.199 378.683 323.687 376.976 323.931 375.025C325.882 375.757 327.832 376.245 329.783 376.488" fill="#11A6EC"/>
        <path d="M93.0146 315.041C91.0639 319.43 88.6255 323.332 85.4556 326.745C88.6255 327.965 91.5516 329.671 93.99 331.866C94.9653 326.745 97.4037 322.112 100.817 318.455C98.1352 318.455 95.453 317.967 92.7708 317.236C92.2831 317.236 92.0392 316.992 91.7954 316.504C91.5516 316.26 92.0392 315.529 92.2831 316.016" fill="#FE3638"/>
        <path d="M84.4805 347.96C84.9681 349.667 85.212 351.618 85.6997 353.325C90.5765 351.13 95.6971 349.423 100.33 347.229C97.8917 344.302 98.867 341.62 94.7217 343.571C94.2341 343.815 84.9681 349.179 84.4805 347.96Z" fill="#11A6EC"/>
        <path d="M310.764 5.85216C310.276 9.26592 311.008 12.9235 312.715 15.8496C312.959 16.3373 313.202 16.5811 313.69 16.825C314.178 17.0688 314.665 16.825 314.909 16.825C317.835 16.0934 320.518 15.3619 323.444 14.3866C320.518 10.2413 319.542 4.8768 320.761 0C317.592 0.24384 314.422 0.48768 311.496 0.73152C311.496 3.41376 311.496 6.33984 311.496 9.02208" fill="#FE3638"/>
        <path d="M341.488 23.4089C340.756 25.1158 340.512 27.0665 340.025 29.0172C339.537 30.9679 338.318 32.6748 336.611 33.4063C338.562 34.1378 340.512 34.8693 342.707 35.357C343.682 31.4556 345.145 27.798 347.096 24.1404C345.389 23.8966 343.926 23.4089 342.219 23.165" fill="#11A6EC"/>
    </g>
    <defs>
        <clipPath id="clip0">
            <rect width="511.576" height="389.9" fill="white" transform="translate(0.111816)"/>
        </clipPath>
    </defs>
</svg>
